<svg viewBox="0 0 12 20" fill="none" xmlns="http://www.w3.org/2000/svg">
  <path d="M0.109955 8.37C0.859955 3.61 5.10995 0.02 9.92996 0C10.42 0 10.9 0.0299999 11.37 0.0999999C11.87 0.17 11.97 0.83 11.51 1.06C8.22996 2.69 5.97996 6.08 5.97996 10C5.97996 13.92 8.22996 17.31 11.51 18.95C11.96 19.18 11.87 19.84 11.37 19.91C10.9 19.97 10.42 20 9.92996 20C5.10995 19.98 0.859955 16.39 0.109955 11.63C0.0199547 11.08 -4.3869e-05 10.54 -4.3869e-05 10C-4.3869e-05 9.46 0.0199547 8.92 0.109955 8.37Z" fill="#035271"/>
</svg>
