<svg width="32" height="32" viewBox="0 0 32 32" fill="none" xmlns="http://www.w3.org/2000/svg">
  <circle cx="16" cy="16" r="16" fill="#818180"/>
  <g clip-path="url(#clip0_10541_19175)">
    <mask id="mask0_10541_19175" style="mask-type:luminance" maskUnits="userSpaceOnUse" x="5" y="4" width="23"
          height="25">
      <path d="M28 4H5V29H28V4Z" fill="white"/>
    </mask>
    <g mask="url(#mask0_10541_19175)">
      <path fill-rule="evenodd" clip-rule="evenodd"
            d="M15.3111 5.66113C15.3233 6.08834 15.6733 6.43172 16.1032 6.43172C16.5258 6.43172 16.8715 6.10084 16.8952 5.68246C21.6447 6.15157 25.3563 10.1964 25.3563 15.117C25.3563 20.106 22.5158 26.4655 16.8341 27.0538C16.7141 26.7685 16.4323 26.5685 16.1032 26.5685C15.7661 26.5685 15.4786 26.7788 15.3643 27.0766C9.51221 26.656 6.58618 20.1803 6.58618 15.117C6.58618 10.106 10.4358 6.00304 15.3111 5.66113ZM15.9709 7.22731C20.4243 7.22731 24.0338 10.845 24.0338 15.3075C24.0338 19.7707 21.391 25.6405 15.9709 25.6405C10.5515 25.6405 7.90796 19.7707 7.90796 15.3075C7.90796 10.845 11.5182 7.22731 15.9709 7.22731ZM15.9709 23.9192C16.6278 23.9192 17.1604 23.3854 17.1604 22.7266C17.1604 22.0685 16.6278 21.5339 15.9709 21.5339C15.314 21.5339 14.7814 22.0685 14.7814 22.7266C14.7814 23.3854 15.314 23.9192 15.9709 23.9192Z"
            fill="white"/>
    </g>
  </g>
  <defs>
    <clipPath id="clip0_10541_19175">
      <rect width="23" height="25" fill="white" transform="translate(5 4)"/>
    </clipPath>
  </defs>
</svg>
