<svg width="41" height="41" viewBox="0 0 41 41" fill="none" xmlns="http://www.w3.org/2000/svg">
  <path
    d="M33.8386 40.0487H6.25904C2.84347 40.0487 0.0488281 37.2541 0.0488281 33.8385V6.25913C0.0488281 2.84347 2.84347 0.0488281 6.25904 0.0488281H33.8386C37.2542 0.0488281 40.0488 2.84347 40.0488 6.25913V33.8385C40.0488 37.2541 37.2542 40.0487 33.8386 40.0487Z"
    fill="#3C8ACA" stroke="#3C8ACA" stroke-width="0.0976532" stroke-miterlimit="10"/>
  <path
    d="M20.6475 36.5517L23.4961 33.1153L20.7902 29.8281H23.0128L24.4607 31.7184L26.0066 29.8281H28.2295L25.5237 33.1153L28.3735 36.5517H26.1535L24.4488 34.4798L22.8678 36.5517H20.6475Z"
    fill="white"/>
  <path d="M28.5322 31.2638V29.8281H34.1352V31.2638H32.2634V36.5517H30.3947V31.2638H28.5322Z" fill="white"/>
  <path
    d="M17.894 8.93778C17.7807 10.409 17.0821 12.0698 15.7997 13.9186C14.4414 15.9186 13.1015 16.9181 11.7811 16.9181C10.46 16.9181 9.8374 16.2204 9.91344 14.8241C9.98851 13.4656 10.5926 11.8807 11.7246 10.0697C13.0829 7.95694 14.5164 6.86283 16.0262 6.78661C16.7426 6.74964 17.243 6.92816 17.5261 7.32455C17.8091 7.72037 17.9311 8.25829 17.894 8.93778ZM10.5926 30.3323C9.98849 30.3323 9.70566 30.0679 9.7436 29.54C9.81877 28.5579 11.5167 27.2564 14.8376 25.6345C13.1015 28.766 11.6865 30.3323 10.5926 30.3323H10.5926ZM23.0445 2.28705C21.3837 1.81588 19.6485 1.57959 17.8373 1.57959C13.8753 1.57959 10.4793 2.92911 7.64935 5.62631C4.81948 8.32447 3.23463 11.6542 2.89507 15.6163C2.74377 17.4656 2.97014 19.0318 3.57426 20.314C4.44181 22.0501 5.98865 22.9359 8.21547 22.9743C11.4601 23.0112 14.5917 21.4277 17.611 18.22C17.3465 19.3898 16.9883 20.6538 16.5355 22.0121C12.4974 23.8231 9.55437 25.3884 7.706 26.7099C5.1023 28.5962 3.70598 30.5962 3.51764 32.7094C3.17808 36.3692 5.02627 38.1994 9.06441 38.1994C14.689 38.1994 19.0365 33.4066 22.1078 23.8223C22.1108 23.8113 22.1097 23.8022 22.1133 23.7909C22.4236 22.8453 23.376 19.0817 23.4929 18.6187C24.6725 12.303 25.5231 7.39532 26.0443 3.90027C25.7047 3.29712 24.7044 2.75918 23.0445 2.28705Z"
    stroke="white" stroke-width="0.573082" stroke-miterlimit="10"/>
  <path
    d="M35.9494 30.442C36.0716 30.442 36.1389 30.3808 36.1389 30.2892C36.1389 30.1913 36.0655 30.1362 35.9494 30.1362H35.717V30.442H35.9494ZM35.4479 29.904H35.9677C36.2244 29.904 36.4139 30.0202 36.4139 30.2709C36.4139 30.4481 36.3162 30.5643 36.1695 30.6132L36.4506 31.0106H36.1267L35.8882 30.6622H35.717V31.0106H35.4479L35.4479 29.904ZM36.8297 30.4787V30.4726C36.8297 29.9528 36.4262 29.5249 35.8881 29.5249C35.3563 29.5249 34.9467 29.9589 34.9467 30.4787V30.4848C34.9467 31.0045 35.3502 31.4325 35.8881 31.4325C36.42 31.4325 36.8297 30.9984 36.8297 30.4787ZM34.8242 30.4848V30.4787C34.8242 29.8979 35.2951 29.4087 35.8881 29.4087C36.4874 29.4087 36.952 29.8918 36.952 30.4726V30.4787C36.952 31.0597 36.4813 31.5487 35.8881 31.5487C35.289 31.5487 34.8242 31.0657 34.8242 30.4848Z"
    fill="white"/>
</svg>
