<svg width="33" height="35" viewBox="0 0 33 35" fill="none" xmlns="http://www.w3.org/2000/svg">
  <path
    d="M24.0665 4.52217C23.9523 4.39317 23.7373 4.24267 23.3947 4.24267C22.192 4.24267 21.1775 4.98083 20.6198 6.27083C20.0487 7.57517 19.9614 8.987 19.8808 10.3487L19.8539 10.8217C19.7195 12.8928 19.5784 14.9712 19.4306 17.0423C19.4037 17.415 19.3701 17.7948 19.3365 18.1747C19.2626 18.9558 19.1887 19.7585 19.1887 20.554C19.1887 21.672 20.042 22.5822 21.0901 22.5822H21.6209V29.3762C21.6209 30.1645 22.2256 30.8095 22.9647 30.8095C23.7037 30.8095 24.3084 30.1645 24.3084 29.3762V21.5502C24.3286 21.4642 24.3353 21.371 24.3353 21.2707V5.4395C24.3353 5.18867 24.3487 4.816 24.08 4.515L24.0665 4.52217Z"
    fill="white"/>
  <path
    d="M17.0724 4.95217C17.0724 4.16383 16.4677 3.51883 15.7286 3.51883C14.9895 3.51883 14.3849 4.16383 14.3849 4.95217V11.911C14.3714 12.2693 14.2639 12.5417 13.8474 12.5417C13.3972 12.5417 13.3166 12.2192 13.3166 11.8178V4.95217C13.3166 4.16383 12.7119 3.51883 11.9728 3.51883C11.2338 3.51883 10.6291 4.16383 10.6291 4.95217V11.8178H10.6156C10.6156 12.2192 10.4745 12.5703 10.0177 12.5703C9.5608 12.5703 9.47345 12.2192 9.47345 11.8178H9.46674V4.95217C9.46674 4.16383 8.86205 3.51883 8.12299 3.51883C7.38392 3.51883 6.77924 4.16383 6.77924 4.95217V12.3697C6.77924 12.5488 6.81283 12.7137 6.86658 12.8713C6.88674 12.9287 6.91361 12.986 6.94049 13.0362C7.36377 14.0897 8.74111 14.8708 10.3939 14.8708H10.6224V29.3618C10.6224 30.1502 11.227 30.7952 11.9661 30.7952C12.7052 30.7952 13.3099 30.1502 13.3099 29.3618V14.8708H13.4845C15.4733 14.8708 17.0858 13.7457 17.0858 12.3625V11.8107H17.0724V4.95217Z"
    fill="white"/>
</svg>
