<svg width="36" height="37" viewBox="0 0 36 37" fill="none" xmlns="http://www.w3.org/2000/svg">
<circle cx="18" cy="18.159" r="18" fill="#666666"/>
<path d="M28.3977 26.0095L23.7893 21.8642C23.1872 22.6516 22.4924 23.3695 21.7051 23.9484L25.8503 28.5569C25.8967 28.6032 25.943 28.6495 25.9893 28.6958C26.7303 29.3674 27.8651 29.2979 28.5367 28.5569C29.2082 27.8158 29.1388 26.6579 28.3977 26.0095Z" fill="white"/>
<path d="M15.5221 7.15895C10.8211 7.15895 7 10.98 7 15.6811C7 20.3821 10.8211 24.2032 15.5221 24.2032C20.2232 24.2032 24.0442 20.3821 24.0442 15.6811C24.0442 10.98 20.2232 7.15895 15.5221 7.15895ZM15.5221 10.0768C16.2632 10.0768 16.8653 10.7021 16.819 11.4432L16.5642 16.5379C16.5411 17.0937 16.0779 17.5337 15.5221 17.5337C14.9663 17.5337 14.5032 17.0937 14.48 16.5379L14.2253 11.4663C14.179 10.7253 14.7811 10.0768 15.5221 10.0768ZM15.5221 21.2853C14.7579 21.2853 14.1326 20.66 14.1326 19.8958C14.1326 19.1316 14.7579 18.5063 15.5221 18.5063C16.2863 18.5063 16.9116 19.1316 16.9116 19.8958C16.9116 20.66 16.2863 21.2853 15.5221 21.2853Z" fill="white"/>
</svg>
