
<svg width="37" height="37" viewBox="0 0 37 37" fill="none" xmlns="http://www.w3.org/2000/svg">
<circle cx="18.0142" cy="18.159" r="18" fill="#666666"/>
<path d="M10.4843 25H25.5443C27.0843 25 28.0443 23.33 27.2743 22L19.7443 8.99C18.9743 7.66 17.0543 7.66 16.2843 8.99L8.75428 22C7.98428 23.33 8.94428 25 10.4843 25ZM18.0143 18C17.4643 18 17.0143 17.55 17.0143 17V15C17.0143 14.45 17.4643 14 18.0143 14C18.5643 14 19.0143 14.45 19.0143 15V17C19.0143 17.55 18.5643 18 18.0143 18ZM19.0143 22H17.0143V20H19.0143V22Z" fill="white"/>
</svg>
