<svg width="125" height="34" viewBox="0 0 125 34" fill="none" xmlns="http://www.w3.org/2000/svg">
  <path
    d="M33.7082 15.1267C33.6587 16.3016 33.3046 17.4275 32.6443 18.5038C31.8612 19.801 30.92 20.4492 29.8194 20.4492C29.3297 20.4492 28.9507 20.18 28.6822 19.642C28.4374 19.1773 28.327 18.6384 28.3518 18.0267C28.4009 16.7786 28.7673 15.6041 29.4524 14.5025C30.2597 13.1569 31.287 12.4838 32.5346 12.4838C32.9254 12.4838 33.2251 12.759 33.4334 13.3098C33.6406 13.8601 33.7326 14.4658 33.7084 15.1266M9.7515 14.209C9.67826 15.1631 9.22525 16.2405 8.39425 17.4392C7.51375 18.7364 6.64524 19.3847 5.78943 19.3847C4.93267 19.3847 4.52905 18.9324 4.57855 18.0267C4.62746 17.1457 5.01874 16.1179 5.75287 14.9435C6.63337 13.5732 7.56231 12.8635 8.54122 12.814C9.00515 12.7902 9.32972 12.906 9.51325 13.163C9.69678 13.4197 9.77584 13.7687 9.75162 14.2091M5.01886 28.0846C4.62758 28.0846 4.44405 27.9128 4.46886 27.5709C4.51729 26.9334 5.61789 26.0896 7.77053 25.038C6.64524 27.0686 5.72817 28.0846 5.01886 28.0846ZM32.828 9.47391C30.162 9.47391 27.9484 10.4529 26.1874 12.4106C24.5487 14.172 23.7899 16.1055 23.9126 18.2098C23.9181 18.3074 23.925 18.4029 23.9334 18.4979C23.9017 18.5241 23.8716 18.5504 23.8399 18.5771C22.9589 19.3115 22.3475 19.6783 22.0053 19.6783C21.2222 19.6783 20.8434 19.1527 20.8681 18.1C20.8681 17.611 21.2163 15.4018 21.9137 11.4743C22.6107 7.54678 22.9831 4.95902 23.0326 3.71081C23.1059 1.3125 22.0909 0.0767517 19.9876 0.00299211C17.7127 -0.0702923 16.074 1.20262 15.0713 3.82115C15.4621 3.67422 15.8657 3.60047 16.2817 3.60047C16.624 3.60047 16.9792 3.79692 17.3456 4.18793C17.9081 4.77539 18.1405 5.70576 18.0431 6.97773C17.7493 8.93598 17.4678 10.8815 17.1993 12.8141C16.8139 15.4603 16.5493 17.5389 16.4048 19.0503C15.5307 19.5724 14.5123 20.1124 13.347 20.6696C14.1296 16.4847 14.6919 13.2427 15.0347 10.9423C14.8146 10.5508 14.1661 10.2025 13.0903 9.89616C12.0135 9.59031 10.8887 9.43732 9.71494 9.43732C7.14681 9.43732 4.94561 10.3123 3.11101 12.0618C1.27688 13.8117 0.249533 15.971 0.0294374 18.5405C-0.0685015 19.7401 0.0778718 20.7557 0.469627 21.5871C1.03197 22.713 2.03463 23.2876 3.47807 23.3123C5.58133 23.3365 7.61133 22.3096 9.56809 20.2291C9.39691 20.9879 9.16494 21.8074 8.87112 22.6887C6.25348 23.8632 4.34611 24.8781 3.14769 25.7353C1.45994 26.9587 0.555339 28.2559 0.433064 29.6262C0.212968 31.9997 1.41103 33.1865 4.02855 33.1865C7.91738 33.1865 10.8644 29.6499 12.8702 22.5778C14.1592 21.9285 15.2965 21.2941 16.2858 20.6754C16.2843 20.7105 16.2833 20.7457 16.2818 20.7793C16.2576 21.5632 16.4471 22.1992 16.8507 22.6886C17.2543 23.1776 17.8351 23.4225 18.5933 23.4225C20.2316 23.4225 21.8708 22.7129 23.5095 21.2935C23.8216 21.0194 24.1154 20.7367 24.393 20.4457C24.5819 20.9009 24.8248 21.3187 25.1235 21.6973C26.1262 22.9454 27.5937 23.5695 29.5258 23.5695C31.8496 23.5695 33.794 22.7494 35.3596 21.1099C36.9246 19.4708 37.7562 17.5253 37.8541 15.2735C37.9279 13.6097 37.548 12.2511 36.717 11.199C35.8365 10.0489 34.5401 9.47379 32.8282 9.47379"
    fill="#3C8ACA"/>
  <path
    d="M48.127 15.1268C48.0774 16.3017 47.7233 17.4276 47.063 18.5039C46.28 19.801 45.3387 20.4493 44.2381 20.4493C43.7484 20.4493 43.3695 20.1801 43.1005 19.6421C42.8557 19.1775 42.7459 18.6385 42.7706 18.0268C42.8196 16.7787 43.1861 15.6042 43.8712 14.5026C44.6784 13.157 45.7053 12.4839 46.9532 12.4839C47.344 12.4839 47.6438 12.7591 47.8515 13.3099C48.0593 13.8601 48.1508 14.4659 48.1271 15.1266M47.2461 9.47388C44.5805 9.47388 42.367 10.4528 40.6061 12.4106C38.9669 14.1719 38.2085 16.1055 38.3312 18.2098C38.4044 19.6049 38.808 20.7674 39.542 21.6973C40.5447 22.9454 42.0118 23.5696 43.9443 23.5696C46.2677 23.5696 48.2125 22.7495 49.7777 21.11C51.3427 19.4709 52.1747 17.5254 52.2727 15.2736C52.3464 13.6098 51.9665 12.2512 51.1355 11.1991C50.255 10.049 48.9581 9.47388 47.2461 9.47388Z"
    fill="#3C8ACA"/>
  <path
    d="M80.3751 15.1266C80.3256 16.3015 79.9715 17.4274 79.3112 18.5038C78.5282 19.8009 77.5869 20.4492 76.4863 20.4492C75.9966 20.4492 75.6177 20.1799 75.3487 19.642C75.1043 19.1772 74.994 18.6383 75.0187 18.0266C75.0672 16.7786 75.4347 15.6041 76.1193 14.5025C76.9266 13.1568 77.9539 12.4838 79.2014 12.4838C79.5922 12.4838 79.8919 12.759 80.1002 13.3097C80.3074 13.86 80.3994 14.4658 80.3752 15.1265M83.3837 11.199C82.5032 10.0489 81.2062 9.47374 79.4948 9.47374C76.8288 9.47374 74.6152 10.4527 72.8542 12.4105C71.5598 13.8016 70.8168 15.3011 70.6215 16.9066L70.5799 16.8522C68.7937 18.9322 67.1916 19.9721 65.7735 19.9721C64.8437 19.9721 63.7678 19.4826 62.545 18.5038C61.2243 17.4274 60.4655 16.3014 60.2701 15.1266C60.6614 14.5392 61.2609 13.9398 62.0677 13.3281C62.9971 12.6184 63.8657 12.2027 64.673 12.08C65.4555 11.9578 66.2137 12.0677 66.9473 12.4106C66.874 11.4807 66.5436 10.6977 65.957 10.0613C65.2967 9.4001 64.477 9.07002 63.4991 9.07002C62.08 9.07002 60.6979 9.64514 59.353 10.7952C58.3994 11.6276 57.6406 12.5452 57.0781 13.5483C58.1792 8.78793 58.7411 5.59774 58.7659 3.978C58.7901 1.57375 57.7993 0.334086 55.7941 0.260327C53.5198 0.186567 51.8558 1.47184 50.8047 4.11459C51.2449 3.91909 51.6604 3.8211 52.0521 3.8211C52.3697 3.8211 52.7001 4.01708 53.0429 4.40904C53.5564 5.02216 53.7641 5.96642 53.6662 7.24088C53.5929 8.17279 53.3728 10.1712 53.0059 13.2356C52.6878 15.9818 52.5043 18.0168 52.4559 19.3402C52.4064 20.5176 52.676 21.4494 53.2627 22.1353C53.9967 22.9688 55.1947 23.3612 56.8583 23.3122C56.7603 22.456 56.7603 20.6575 56.8583 17.9163C57.3959 19.2134 58.405 20.4615 59.885 21.6607C61.365 22.8594 62.6549 23.4592 63.756 23.4592C65.3205 23.4592 66.8985 22.7376 68.4888 21.2936C69.3198 20.5329 70.0341 19.707 70.6355 18.8176C70.7814 19.9455 71.1658 20.9065 71.7904 21.6974C72.7931 22.9455 74.2602 23.5695 76.1933 23.5695C78.5162 23.5695 80.4611 22.7495 82.0261 21.1099C83.5911 19.4708 84.4231 17.5254 84.5211 15.2735C84.5948 13.6097 84.2149 12.2512 83.3839 11.1991"
    fill="#3C8ACA"/>
  <path
    d="M86.8262 23.5717L93.9935 14.9205L87.1853 6.64478H92.7777L96.4212 11.4038L100.311 6.64478H105.904L99.0958 14.9205L106.267 23.5717H100.681L96.3912 18.3554L92.4133 23.5717H86.8264H86.8262Z"
    fill="#24B3D4"/>
  <path d="M106.667 10.259V6.64478H120.765V10.259H116.055V23.5712H111.353V10.259H106.667Z" fill="#24B3D4"/>
  <path
    d="M123.353 5.89242C123.512 5.89242 123.599 5.8132 123.599 5.69442C123.599 5.56721 123.504 5.49594 123.353 5.49594H123.052V5.89242H123.353ZM122.704 5.19508H123.377C123.709 5.19508 123.955 5.34558 123.955 5.67066C123.955 5.90026 123.829 6.05074 123.639 6.11405L124.003 6.62918H123.583L123.274 6.17784H123.052V6.62918H122.704V5.19497L122.704 5.19508ZM124.494 5.93993V5.93197C124.494 5.2584 123.971 4.70359 123.274 4.70359C122.585 4.70359 122.054 5.26623 122.054 5.93981V5.94777C122.054 6.62134 122.577 7.17614 123.274 7.17614C123.963 7.17614 124.494 6.61351 124.494 5.93993ZM121.896 5.94788V5.93993C121.896 5.18725 122.505 4.55322 123.274 4.55322C124.05 4.55322 124.652 5.17929 124.652 5.93197V5.93993C124.652 6.69261 124.042 7.32663 123.274 7.32663C122.497 7.32663 121.896 6.70056 121.896 5.94788Z"
    fill="#231F20"/>
</svg>
