<svg width="162" height="47" viewBox="0 0 162 47" fill="none" xmlns="http://www.w3.org/2000/svg">
  <path
    d="M75.8057 34.1519H77.1093V37.1528H80.2004V34.1519H81.5041V41.2976H80.2004V38.2554H77.1093V41.2976H75.8057V34.1519Z"
    fill="#3F3A60"/>
  <path
    d="M84.6631 34.1517H89.6197V35.2231H85.9556V37.1627H89.2042V38.2341H85.9556V40.225H89.6756V41.2964H84.6631V34.1506V34.1517Z"
    fill="#3F3A60"/>
  <path
    d="M94.8125 34.1116H96.0715L98.9604 41.2986H97.6009L96.9496 39.6146H93.892L93.2396 41.2986H91.9248L94.8137 34.1116H94.8125ZM96.543 38.5622L95.4191 35.6941L94.2953 38.5622H96.543Z"
    fill="#3F3A60"/>
  <path d="M101.546 34.1519H102.85V40.205H106.221V41.2976H101.546V34.1519Z" fill="#3F3A60"/>
  <path d="M109.537 35.2545H107.469V34.1519H112.908V35.2545H110.84V41.2976H109.537V35.2545Z" fill="#3F3A60"/>
  <path
    d="M115.597 34.1519H116.9V37.1528H119.991V34.1519H121.295V41.2976H119.991V38.2554H116.9V41.2976H115.597V34.1519Z"
    fill="#3F3A60"/>
  <path
    d="M124.161 37.7653V37.6939C124.161 35.53 125.645 34.0491 127.679 34.0491C128.781 34.0491 129.511 34.4062 130.151 34.9374L129.365 35.8458C128.905 35.4575 128.387 35.1517 127.679 35.1517C126.442 35.1517 125.51 36.1728 125.51 37.6939V37.7352C125.51 39.2865 126.442 40.2975 127.679 40.2975C128.432 40.2975 128.927 39.9806 129.421 39.5521L130.185 40.3891C129.499 41.0319 128.701 41.4002 127.611 41.4002C125.599 41.4002 124.16 39.9505 124.16 37.7665L124.161 37.7653Z"
    fill="#3F3A60"/>
  <path
    d="M135.153 34.1116H136.412L139.301 41.2986H137.942L137.29 39.6146H134.233L133.58 41.2986H132.266L135.154 34.1116H135.153ZM136.884 38.5622L135.76 35.6941L134.636 38.5622H136.884Z"
    fill="#3F3A60"/>
  <path
    d="M141.886 34.1519H144.729C145.628 34.1519 146.359 34.3974 146.83 34.8259C147.246 35.2031 147.482 35.7444 147.482 36.3984V36.4397C147.482 37.5423 146.808 38.2264 145.853 38.5322L147.707 41.2987H146.201L144.527 38.7676C144.504 38.7777 144.471 38.7777 144.448 38.7777H143.189V41.2987H141.886V34.153V34.1519ZM144.595 37.7141C145.607 37.7141 146.169 37.2242 146.169 36.4787V36.4586C146.169 35.6518 145.596 35.2333 144.618 35.2333H143.191V37.7141H144.596H144.595Z"
    fill="#3F3A60"/>
  <path
    d="M150.36 34.1517H155.317V35.2231H151.653V37.1627H154.901V38.2341H151.653V40.225H155.373V41.2964H150.36V34.1506V34.1517Z"
    fill="#3F3A60"/>
  <path
    d="M69.9329 7.01074C71.9895 7.01074 73.6607 8.64568 73.6607 10.6567C73.6607 12.6677 70.4401 15.9488 69.9329 15.9488C69.4257 15.9488 66.2051 12.6689 66.2051 10.6567C66.2051 8.64456 67.8763 7.01074 69.9329 7.01074Z"
    fill="#7373B4"/>
  <path
    d="M153.763 6.92822L149.089 17.442L143.618 6.92822H139.554C138.077 6.92822 137.202 6.92822 137.607 8.40246L145.937 24.4617L142.857 31.3173H149.488L160.395 6.92934H153.763V6.92822Z"
    fill="#3F3A60"/>
  <path
    d="M134.011 16.7502C134.626 15.8272 134.917 14.8061 134.917 13.718C134.917 10.0598 131.257 7.06107 126.764 7.06107L119.698 7.02759V28.6445C119.698 30.1198 120.896 31.3162 122.373 31.3162H127.488C133.105 31.3162 137.669 27.6579 137.669 23.0768C137.669 20.539 136.293 18.2981 134.01 16.7491L134.011 16.7502ZM125.822 12.631H126.764C128.032 12.631 128.793 13.2906 128.793 13.7191C128.793 14.2135 127.995 14.8072 126.8 14.8396H125.821V12.631H125.822ZM127.489 25.715H125.822V20.4084H127.489C129.663 20.4084 131.547 21.6282 131.547 23.0779C131.547 24.5276 129.663 25.7139 127.489 25.7139V25.715Z"
    fill="#3F3A60"/>
  <path
    d="M114.191 16.7502C114.807 15.8272 115.097 14.8061 115.097 13.718C115.097 10.0598 111.438 7.06107 106.945 7.06107L99.8789 7.02759V28.6445C99.8789 30.1198 101.076 31.3162 102.553 31.3162H107.669C113.285 31.3162 117.85 27.6579 117.85 23.0768C117.85 20.539 116.474 18.2981 114.19 16.7491L114.191 16.7502ZM106.003 12.631H106.945C108.213 12.631 108.973 13.2906 108.973 13.7191C108.973 14.2135 108.176 14.8072 106.98 14.8396H106.002V12.631H106.003ZM107.67 25.715H106.003V20.4084H107.67C109.844 20.4084 111.728 21.6282 111.728 23.0779C111.728 24.5276 109.844 25.7139 107.67 25.7139V25.715Z"
    fill="#3F3A60"/>
  <path
    d="M90.7103 9.66686V9.66909C90.2187 8.25066 88.6302 7.12573 87.1523 7.12573H84.0098L74.9512 31.3161H81.4371L82.5241 28.3833H90.8935L91.9447 31.3161H98.3949L90.7103 9.66686ZM84.6265 22.8133L86.8373 16.9465L88.9385 22.8133H84.6265Z"
    fill="#3F3A60"/>
  <path
    d="M51.7109 6.99417V6.96069H49.1851C47.1989 6.96069 45.588 8.56996 45.5869 10.5542V27.6893C45.5869 29.6746 47.1978 31.2839 49.1851 31.2839H51.7109C58.9219 30.9212 64.465 25.7798 64.465 19.288C64.465 12.7963 58.8124 7.35799 51.7109 6.99529V6.99417ZM51.7109 25.6805V12.5641C55.4432 12.9268 58.3421 15.8273 58.3421 19.2869C58.3421 22.7465 55.4801 25.3178 51.7109 25.6805Z"
    fill="#3F3A60"/>
  <path
    d="M71.2819 31.2839C72.3398 31.2839 73.1967 30.4279 73.1967 29.371V15.5784C73.1967 15.5371 73.1877 15.3686 73.1084 15.4333C73.1017 15.4389 73.0928 15.449 73.0861 15.459C71.9935 16.9355 70.4966 18.7066 69.9314 18.7066C69.3661 18.7066 67.7061 16.8518 66.7766 15.459C66.771 15.449 66.7543 15.4278 66.7465 15.4244C66.6627 15.3909 66.666 15.5215 66.666 15.5784V31.2839"
    fill="#3F3A60"/>
  <path
    d="M12.8176 23.7016C12.9305 23.5699 13.1472 23.667 13.1237 23.8389C12.936 25.2082 12.9528 25.5051 12.9416 26.8019C12.9204 29.2325 14.4721 31.1799 17.0202 31.2547C17.0671 31.2558 17.1107 31.229 17.1319 31.1878C18.3518 28.7593 19.2388 26.4626 20.2118 23.9728C20.2498 23.8768 20.3425 23.8467 20.443 23.869C20.5023 23.8824 20.5201 23.9628 20.5324 24.0197C20.5324 27.0351 19.4153 30.0249 22.6583 31.0683C24.3161 31.6018 26.3704 29.6477 28.1411 28.3286C28.293 28.2147 28.5108 28.2906 28.56 28.4736C28.7108 29.0261 29.1197 29.8608 29.81 30.2057C31.5941 31.0962 33.8316 31.2648 35.6492 29.3218C35.695 29.2727 35.7386 29.1868 35.8402 29.1644C35.3442 31.2335 34.531 33.2635 33.988 35.2533C33.6965 36.3191 34.1109 37.9139 35.1766 38.502C36.0122 38.964 36.9573 39.2687 37.8432 39.6258C37.9046 39.6504 37.9728 39.618 37.9929 39.5555C40.0305 33.2412 42.0357 27.1568 43.9449 21.0467C44.9491 17.8337 43.2143 15.758 39.5256 15.5839C39.4764 15.5816 39.4273 15.6084 39.4105 15.6542C37.7103 20.2811 36.5518 23.84 34.0282 27.1746C33.8763 27.3755 33.5468 27.1568 33.6138 26.9135C34.1064 25.1156 34.6952 23.3456 35.5587 21.7007C36.9059 19.135 36.4546 17.6049 33.7222 16.2579C32.4263 15.6185 31.4544 15.6988 30.9137 17.009C30.0692 19.0602 29.2247 21.1962 28.6114 22.9595C27.7445 25.2975 27.6216 26.0452 25.6253 26.6892C25.5348 26.7182 25.4566 26.6311 25.4857 26.5407C26.1649 24.369 26.5514 23.686 26.9916 21.7453C27.8517 17.9609 26.9837 17.8371 26.2051 17.1451C25.2522 16.2992 23.6972 15.8104 22.9063 15.8093C22.1154 15.8082 21.234 16.0169 20.5023 16.9498C20.0398 17.5402 19.8264 17.8092 19.2232 19.2042C19.2176 19.2164 19.1986 19.2153 19.1952 19.2019C18.9171 18.0134 18.8456 17.2902 18.0815 16.6496C17.2068 15.9164 14.9145 15.3796 14.1526 15.912C13.0857 16.6586 12.1909 18.1752 12.0468 19.2388C12.039 19.2923 11.982 19.2979 11.9764 19.2443C11.6536 16.5414 11.8659 16.2981 8.16821 15.4455C8.10677 15.431 8.04198 15.4689 8.02634 15.5292C7.94256 15.8383 7.85989 16.1586 7.76494 16.4744C6.72044 19.9217 5.76195 23.3947 4.59345 26.8052C3.931 28.7404 3.37692 29.1644 5.22686 30.2336C5.76754 30.5461 7.30245 30.9813 7.93027 31.0549C9.16915 31.2 9.75228 31.2157 10.2695 30.1834L12.8188 23.6972L12.8176 23.7016Z"
    fill="#7373B4"/>
</svg>
